<?xml version="1.0" encoding="UTF-8" standalone="no"?>
<!-- Created with Inkscape (http://www.inkscape.org/) -->

<svg
   width="320"
   height="354"
   viewBox="0 0 84.666661 93.662503"
   version="1.1"
   id="svg5"
   inkscape:version="1.2.2 (732a01da63, 2022-12-09)"
   sodipodi:docname="apbn_logo_boolean.svg"
   xml:space="preserve"
   inkscape:export-filename="logo_512x512.png"
   inkscape:export-xdpi="300"
   inkscape:export-ydpi="300"
   xmlns:inkscape="http://www.inkscape.org/namespaces/inkscape"
   xmlns:sodipodi="http://sodipodi.sourceforge.net/DTD/sodipodi-0.dtd"
   xmlns="http://www.w3.org/2000/svg"
   xmlns:svg="http://www.w3.org/2000/svg"><sodipodi:namedview
     id="namedview7"
     pagecolor="#ffffff"
     bordercolor="#cccccc"
     borderopacity="1"
     inkscape:showpageshadow="0"
     inkscape:pageopacity="1"
     inkscape:pagecheckerboard="0"
     inkscape:deskcolor="#d1d1d1"
     inkscape:document-units="mm"
     showgrid="false"
     inkscape:zoom="0.67526655"
     inkscape:cx="701.20458"
     inkscape:cy="559.77895"
     inkscape:window-width="1920"
     inkscape:window-height="991"
     inkscape:window-x="-9"
     inkscape:window-y="-9"
     inkscape:window-maximized="1"
     inkscape:current-layer="layer1"
     showguides="false" /><defs
     id="defs2" /><g
     inkscape:label="Layer 1"
     inkscape:groupmode="layer"
     id="layer1"><path
       id="rect471"
       style="fill:#291771;fill-opacity:1;stroke-width:0.265822"
       d="M 0.40824382 0.049092611 L 0.40824382 58.890462 C 2.8401912 58.129396 17.615645 54.417922 36.456173 69.597302 C 55.184546 84.686312 60.55295 89.972016 71.327946 92.714754 C 73.675418 93.312294 76.098383 93.601963 78.446891 93.694023 L 81.950037 93.694023 C 82.881023 93.659523 83.782467 93.598523 84.649613 93.521423 L 84.649613 0.049092611 L 0.40824382 0.049092611 z M 45.170886 15.332914 L 47.335612 15.332914 L 47.335612 26.844873 C 47.734233 25.641199 48.332581 24.713602 49.132918 24.064681 C 50.037908 23.330906 51.163167 22.963973 52.508423 22.963973 C 53.902596 22.963973 55.089011 23.330906 56.067379 24.064681 C 57.045746 24.798456 57.791843 25.862562 58.305485 27.256734 C 58.843586 28.62645 59.112671 30.277127 59.112671 32.209403 C 59.112671 34.166141 58.855819 35.841795 58.342175 37.23597 C 57.828533 38.605685 57.070206 39.657558 56.067379 40.391333 C 55.089011 41.125108 53.902596 41.492041 52.508423 41.492041 C 51.138708 41.492041 50.001218 41.125108 49.096228 40.391333 C 48.290436 39.737989 47.680204 38.791953 47.262231 37.556881 L 47.262231 41.198519 L 45.170886 41.198519 L 45.170886 15.332914 z M 15.379423 22.963973 C 16.602385 22.963973 17.629792 23.184132 18.461405 23.624398 C 19.29302 24.040205 19.929033 24.688449 20.369299 25.568982 C 20.809566 26.425056 21.029207 27.538079 21.029207 28.907796 L 21.029207 41.198519 L 19.011759 41.198519 L 19.011759 37.49952 C 18.752108 38.20988 18.413194 38.858556 17.984432 39.437386 C 17.495247 40.097785 16.908158 40.611489 16.223299 40.978377 C 15.53844 41.320807 14.792347 41.492041 13.985193 41.492041 C 12.933445 41.492041 11.991657 41.247421 11.160042 40.758236 C 10.352888 40.244592 9.7291056 39.584116 9.2888387 38.776961 C 8.8485725 37.945347 8.6284139 37.064713 8.6284139 36.135262 C 8.6284139 34.863381 8.9341892 33.848206 9.5456706 33.08997 C 10.157151 32.331733 11.09894 31.781338 12.370821 31.438908 C 13.667161 31.096479 15.342812 30.925761 17.397388 30.925761 L 18.901689 30.925761 L 18.901689 28.797725 C 18.901689 27.428007 18.608144 26.425064 18.021122 25.789124 C 17.4341 25.153183 16.504543 24.835177 15.232662 24.835177 C 14.401048 24.835177 13.544876 24.981949 12.664343 25.27546 C 11.80827 25.544512 10.927636 25.997059 10.022644 26.633 L 9.1787679 24.908557 C 9.7657891 24.49275 10.401802 24.150281 11.086662 23.88123 C 11.79598 23.587719 12.51761 23.36756 13.251388 23.220805 C 13.985165 23.04959 14.694564 22.963973 15.379423 22.963973 z M 33.870801 22.963973 C 35.264975 22.963973 36.450871 23.330905 37.42924 24.064681 C 38.432068 24.798457 39.190393 25.86256 39.704036 27.256734 C 40.217681 28.626451 40.474532 30.277125 40.474532 32.209403 C 40.474532 34.141683 40.20545 35.805104 39.667346 37.19928 C 39.153703 38.593454 38.407609 39.657557 37.42924 40.391333 C 36.450871 41.125109 35.264975 41.492041 33.870801 41.492041 C 32.501084 41.492041 31.363597 41.137341 30.458606 40.428023 C 29.680247 39.779391 29.093587 38.842961 28.697473 37.620959 L 28.697473 47.80225 L 26.532747 47.80225 L 26.532747 23.257495 L 28.624093 23.257495 L 28.624093 26.899133 C 29.042064 25.664059 29.652814 24.718026 30.458606 24.064681 C 31.363597 23.330905 32.501084 22.963973 33.870801 22.963973 z M 71.219942 22.963973 C 72.271686 22.963973 73.189019 23.171901 73.971712 23.587708 C 74.754405 24.003511 75.353212 24.663993 75.769019 25.568982 C 76.209282 26.449512 76.429443 27.635927 76.429443 29.127938 L 76.429443 41.198519 L 74.265234 41.198519 L 74.265234 29.311389 C 74.265234 28.210727 74.130693 27.342321 73.861641 26.70638 C 73.592593 26.045984 73.201194 25.581202 72.687553 25.31215 C 72.173909 25.018639 71.550127 24.871867 70.816349 24.871867 C 69.960278 24.871867 69.153025 25.092025 68.394792 25.532292 C 67.661014 25.948096 67.073922 26.535191 66.633659 27.293424 C 66.193393 28.051661 65.973234 28.944529 65.973234 29.971814 L 65.973234 41.198519 L 63.808508 41.198519 L 63.808508 23.257495 L 65.863163 23.257495 L 65.863163 26.515177 C 66.283538 25.534147 66.917771 24.715872 67.771057 24.064681 C 68.724965 23.330907 69.87469 22.963973 71.219942 22.963973 z M 33.467208 24.835177 C 31.877358 24.835177 30.678716 25.471192 29.871562 26.74307 C 29.064406 27.990491 28.660783 29.812401 28.660783 32.209403 C 28.660783 34.606408 29.064406 36.441064 29.871562 37.712944 C 30.678716 38.984822 31.877358 39.620837 33.467208 39.620837 C 35.057057 39.620837 36.255184 38.984822 37.062337 37.712944 C 37.869491 36.441064 38.273116 34.606408 38.273116 32.209403 C 38.273116 29.812401 37.869491 27.990491 37.062337 26.74307 C 36.255184 25.471192 35.057057 24.835177 33.467208 24.835177 z M 52.10483 24.835177 C 50.514983 24.835177 49.316337 25.458961 48.509184 26.70638 C 47.702031 27.9538 47.298922 29.800174 47.298922 32.246094 C 47.298922 34.667553 47.702031 36.502214 48.509184 37.749634 C 49.316337 38.997053 50.514983 39.620837 52.10483 39.620837 C 53.694676 39.620837 54.893323 38.997053 55.700476 37.749634 C 56.507629 36.502214 56.911255 34.667553 56.911255 32.246094 C 56.911255 29.800174 56.507629 27.9538 55.700476 26.70638 C 54.893323 25.458961 53.694676 24.835177 52.10483 24.835177 z M 17.580839 32.612996 C 16.308958 32.612996 15.232628 32.674151 14.352096 32.796448 C 13.496022 32.894284 12.798854 33.07775 12.26075 33.346802 C 11.747106 33.615853 11.367944 33.982784 11.123352 34.44751 C 10.903219 34.887776 10.79314 35.450403 10.79314 36.135262 C 10.79314 37.235928 11.135608 38.10433 11.820467 38.740271 C 12.505326 39.376211 13.337036 39.694218 14.315405 39.694218 C 15.098101 39.694218 15.831963 39.449597 16.516821 38.960413 C 17.226139 38.471228 17.800998 37.810753 18.241264 36.979138 C 18.68153 36.123065 18.901689 35.169045 18.901689 34.117297 L 18.901689 32.612996 L 17.580839 32.612996 z " /><path
       style="fill:#0093dd;fill-opacity:1;stroke-width:0.264583"
       d="m 0.0168393,80.960166 v -11.16688 c 0,0 9.501177,-2.62502 19.5910277,0.78364 12.940915,4.37182 14.033688,9.0747 30.953826,17.33805 6.658124,3.25166 12.440304,3.91821 12.440304,3.91821 0,0 -5.24832,2.4145 -20.76649,-2.35092 -12.440303,-3.82025 -16.032974,-7.05518 -28.309038,-8.91392 -9.0230827,-1.3662 -13.9096297,0.39182 -13.9096297,0.39182 z"
       id="path840"
       sodipodi:nodetypes="ccsscssc" /></g></svg>
