<?xml version="1.0" encoding="UTF-8" standalone="no"?>
<!-- Created with Inkscape (http://www.inkscape.org/) -->

<svg
   width="320"
   height="354"
   viewBox="0 0 84.666661 93.662503"
   version="1.1"
   id="svg5"
   inkscape:version="1.2.2 (732a01da63, 2022-12-09)"
   sodipodi:docname="apbn_logo.svg"
   xml:space="preserve"
   xmlns:inkscape="http://www.inkscape.org/namespaces/inkscape"
   xmlns:sodipodi="http://sodipodi.sourceforge.net/DTD/sodipodi-0.dtd"
   xmlns="http://www.w3.org/2000/svg"
   xmlns:svg="http://www.w3.org/2000/svg"><sodipodi:namedview
     id="namedview7"
     pagecolor="#ffffff"
     bordercolor="#cccccc"
     borderopacity="1"
     inkscape:showpageshadow="0"
     inkscape:pageopacity="1"
     inkscape:pagecheckerboard="0"
     inkscape:deskcolor="#d1d1d1"
     inkscape:document-units="mm"
     showgrid="false"
     inkscape:zoom="0.67526655"
     inkscape:cx="826.34035"
     inkscape:cy="559.77895"
     inkscape:window-width="1920"
     inkscape:window-height="991"
     inkscape:window-x="-9"
     inkscape:window-y="-9"
     inkscape:window-maximized="1"
     inkscape:current-layer="layer1"
     showguides="false" /><defs
     id="defs2" /><g
     inkscape:label="Layer 1"
     inkscape:groupmode="layer"
     id="layer1"><path
       id="rect471"
       style="fill:#291771;fill-opacity:1;stroke-width:0.265822"
       d="m 0.4084593,0.049192 v 58.841374 c 2.431957,-0.76107 17.2073247,-4.4726 36.0479287,10.70684 18.728449,15.08907 24.096729,20.3747 34.871769,23.11745 2.34748,0.59754 4.77043,0.88721 7.11895,0.97927 h 3.50315 c 0.93099,-0.0345 1.83242,-0.0955 2.69957,-0.1726 V 0.049192 Z" /><path
       style="fill:#0093dd;fill-opacity:1;stroke-width:0.264583"
       d="m 0.0168393,80.960166 v -11.16688 c 0,0 9.501177,-2.62502 19.5910277,0.78364 12.940915,4.37182 14.033688,9.0747 30.953826,17.33805 6.658124,3.25166 12.440304,3.91821 12.440304,3.91821 0,0 -5.24832,2.4145 -20.76649,-2.35092 -12.440303,-3.82025 -16.032974,-7.05518 -28.309038,-8.91392 -9.0230827,-1.3662 -13.9096297,0.39182 -13.9096297,0.39182 z"
       id="path840"
       sodipodi:nodetypes="ccsscssc" /><path
       d="m 13.985197,41.491925 q -1.577623,0 -2.825046,-0.733778 -1.2107327,-0.770467 -1.8711337,-1.981201 -0.6604,-1.247422 -0.6604,-2.6416 0,-1.907823 0.917223,-3.045179 0.9172217,-1.137356 2.8250447,-1.651001 1.944512,-0.513644 5.026379,-0.513644 h 1.871134 v 1.687689 h -1.687689 q -1.907823,0 -3.228623,0.183445 -1.284112,0.146755 -2.091268,0.550333 -0.770467,0.403578 -1.137356,1.100667 -0.3302,0.6604 -0.3302,1.68769 0,1.651 1.02729,2.604912 1.027289,0.953911 2.494845,0.953911 1.174045,0 2.201334,-0.733778 1.063978,-0.733778 1.724378,-1.981201 0.6604,-1.284111 0.6604,-2.861734 v -5.31989 q 0,-2.054579 -0.880533,-3.00849 -0.880534,-0.953912 -2.788357,-0.953912 -1.247422,0 -2.568223,0.440267 -1.284111,0.403578 -2.641601,1.35749 L 9.1789513,24.908542 q 0.8805327,-0.623711 1.9078227,-1.027289 1.063978,-0.440267 2.164645,-0.6604 1.100667,-0.256822 2.127956,-0.256822 1.834445,0 3.081867,0.6604 1.247423,0.623711 1.907823,1.944511 0.6604,1.284112 0.6604,3.33869 v 12.290782 h -2.017889 v -3.99909 h 0.110067 q -0.403578,1.247422 -1.137356,2.238023 -0.733778,0.9906 -1.761067,1.540933 -1.02729,0.513645 -2.238023,0.513645 z"
       style="font-weight:300;font-stretch:condensed;font-size:36.6889px;font-family:'Nunito Sans 10pt Condensed';-inkscape-font-specification:'Nunito Sans 10pt Condensed,  Light Condensed';fill:#ffffff;stroke-width:0.482901"
       id="path9411" /><path
       d="M 26.532805,47.802416 V 23.257542 h 2.091267 v 4.109157 h -0.146755 q 0.623711,-2.201334 1.9812,-3.302001 1.35749,-1.100667 3.412068,-1.100667 2.091267,0 3.558823,1.100667 1.504245,1.100667 2.274712,3.191934 0.770467,2.054578 0.770467,4.953001 0,2.898423 -0.807156,4.989691 -0.770467,2.091267 -2.238023,3.191934 -1.467556,1.100667 -3.558823,1.100667 -2.054578,0 -3.412068,-1.063978 -1.3208,-1.100667 -1.907822,-3.302001 h 0.146755 v 10.67647 z m 6.934202,-8.181625 q 2.384779,0 3.595512,-1.907823 1.210734,-1.907822 1.210734,-5.503335 0,-3.595512 -1.210734,-5.466646 -1.210733,-1.907823 -3.595512,-1.907823 -2.384778,0 -3.595512,1.907823 -1.210734,1.871134 -1.210734,5.466646 0,3.595513 1.210734,5.503335 1.210734,1.907823 3.595512,1.907823 z"
       style="font-weight:300;font-stretch:condensed;font-size:36.6889px;font-family:'Nunito Sans 10pt Condensed';-inkscape-font-specification:'Nunito Sans 10pt Condensed,  Light Condensed';fill:#ffffff;stroke-width:0.482901"
       id="path9413" /><path
       d="m 52.508524,41.491925 q -2.054578,0 -3.412067,-1.100667 -1.35749,-1.100667 -1.981201,-3.302001 h 0.146756 v 4.109157 H 45.170744 V 15.332739 H 47.33539 V 27.33001 h -0.146756 q 0.587022,-2.164645 1.944512,-3.265312 1.357489,-1.100667 3.375378,-1.100667 2.091268,0 3.558824,1.100667 1.467556,1.100667 2.238023,3.191934 0.807155,2.054578 0.807155,4.953001 0,2.935112 -0.770466,5.02638 -0.770467,2.054578 -2.274712,3.155245 -1.467556,1.100667 -3.558824,1.100667 z m -0.403577,-1.871134 q 2.384778,0 3.595512,-1.871134 1.210733,-1.871134 1.210733,-5.503335 0,-3.66889 -1.210733,-5.540024 -1.210734,-1.871134 -3.595512,-1.871134 -2.384779,0 -3.595513,1.871134 -1.210733,1.871134 -1.210733,5.540024 0,3.632201 1.210733,5.503335 1.210734,1.871134 3.595513,1.871134 z"
       style="font-weight:300;font-stretch:condensed;font-size:36.6889px;font-family:'Nunito Sans 10pt Condensed';-inkscape-font-specification:'Nunito Sans 10pt Condensed,  Light Condensed';fill:#ffffff;stroke-width:0.482901"
       id="path9415" /><path
       d="M 63.808684,41.198414 V 23.257542 h 2.054578 v 3.522134 h -0.110066 q 0.623711,-1.651 2.017889,-2.714978 1.430867,-1.100667 3.448757,-1.100667 1.577622,0 2.751667,0.623711 1.174045,0.623711 1.797756,1.9812 0.660401,1.320801 0.660401,3.558824 V 41.198414 H 74.26502 V 29.31121 q 0,-1.651 -0.403577,-2.604912 -0.403578,-0.9906 -1.174045,-1.394178 -0.770467,-0.440267 -1.871134,-0.440267 -1.284112,0 -2.421468,0.660401 -1.100667,0.623711 -1.761067,1.761067 -0.6604,1.137356 -0.6604,2.678289 v 11.226804 z"
       style="font-weight:300;font-stretch:condensed;font-size:36.6889px;font-family:'Nunito Sans 10pt Condensed';-inkscape-font-specification:'Nunito Sans 10pt Condensed,  Light Condensed';fill:#ffffff;stroke-width:0.482901"
       id="path9417" /></g></svg>
