<?xml version="1.0" encoding="UTF-8" standalone="no"?><svg x="0px" y="0px" viewBox="0 0 1000 1000"/><path d="m 213.37,101.87 c -20.48,14.75 -55.7,46.7 -77.82,72.09 -168.75,184.32 -167.11,471.85 3.28,656.17 24.58,26.21 60.62,58.98 80.28,72.09 l 35.22,24.58 16.38,-27.03 17.2,-27.04 -22.94,-16.38 C 178.96,794.9 109.33,694.15 86.4,597.48 47.9,432.01 115.89,248.5 251.06,155.12 c 36.04,-24.57 36.04,-24.57 23.75,-48.33 -6.55,-13.11 -14.74,-25.4 -18.84,-27.85 -3.28,-1.64 -22.94,8.19 -42.6,22.93 z" id="path4" style="stroke-width:0.1" /><path d="m 729.46,100.24 -17.2,27.03 22.94,16.38 c 48.33,34.41 113.86,108.13 139.26,156.47 101.57,191.69 46.69,416.15 -135.17,552.13 l -26.22,20.48 16.38,27.04 16.38,27.03 35.22,-24.58 C 833.5,867 901.49,789.17 932.62,731.83 1030.11,548.33 1001.43,321.42 861.35,169.87 836.77,143.65 800.73,110.89 781.07,97.78 L 745.85,73.2 Z" id="path6" style="stroke-width:0.1" /><path d="m 279.73,259.16 c -28.67,25.4 -51.61,57.34 -72.09,99.94 -29.49,58.98 -31.13,66.36 -31.13,140.9 0,74.54 1.64,81.92 31.13,140.91 29.49,59.79 99.12,137.61 123.7,137.61 4.92,0 15.56,-11.46 23.76,-26.21 13.93,-24.58 13.93,-26.21 0,-33.58 -27.03,-14.75 -72.91,-68.82 -92.57,-108.96 -28.67,-57.34 -28.67,-162.2 0,-219.54 19.66,-40.14 65.54,-94.21 92.57,-108.95 13.93,-7.37 13.93,-9.01 0,-33.58 -8.19,-14.75 -18.84,-26.22 -23.76,-26.22 -5.74,0 -28.68,17.2 -51.61,37.68 z" id="path8" style="stroke-width:0.1" /><path d="m 644.26,246.87 c -14.74,25.4 -14.74,26.21 0,34.4 27.86,14.75 73.73,68 94.21,108.95 15.57,32.77 19.66,52.43 19.66,109.77 -0.82,63.08 -3.28,74.55 -27.86,121.24 -25.39,47.51 -54.89,80.28 -88.47,98.3 -11.47,6.55 -11.47,9.82 2.46,33.58 8.19,13.93 19.66,25.39 24.58,25.39 24.58,0 94.21,-77 123.7,-137.61 29.49,-58.99 31.13,-66.36 31.13,-140.91 0,-74.55 -1.64,-81.92 -31.13,-140.9 -29.5,-60.62 -99.13,-137.62 -123.7,-137.62 -4.91,0.02 -16.38,11.48 -24.58,25.41 z" id="path10" style="stroke-width:0.1" /><path d="m 444.38,345.17 c -39.32,11.47 -89.29,65.53 -100.76,107.31 -18.84,72.91 9.83,149.09 72.09,187.59 46.69,29.5 126.15,27.85 172.03,-2.46 50.78,-33.58 72.09,-73.73 72.09,-137.63 0,-63.08 -21.3,-104.04 -69.63,-135.99 -35.22,-23.73 -102.4,-31.92 -145.82,-18.82 z" id="path12" style="stroke-width:0.1" /></svg>