<?xml version="1.0" standalone="no"?>
<!DOCTYPE svg PUBLIC "-//W3C//DTD SVG 20010904//EN"
 "http://www.w3.org/TR/2001/REC-SVG-20010904/DTD/svg10.dtd">
<svg version="1.0" xmlns="http://www.w3.org/2000/svg"
 width="512.000000pt" height="512.000000pt" viewBox="0 0 512.000000 512.000000"
 preserveAspectRatio="xMidYMid meet">
<metadata>
Created by potrace 1.14, written by Peter Selinger 2001-2017
</metadata>
<g transform="translate(0.000000,512.000000) scale(0.100000,-0.100000)"
fill="#000000" stroke="none">
<path d="M0 3509 c0 -1529 1 -1610 18 -1605 161 49 593 60 835 21 468 -74 888
-249 1267 -528 52 -39 246 -192 430 -342 580 -470 729 -584 930 -713 290 -186
599 -300 902 -332 105 -11 545 -13 661 -4 l77 7 0 2553 0 2554 -2560 0 -2560
0 0 -1611z m2822 464 c2 -242 5 -303 15 -283 58 127 176 188 325 168 72 -9
122 -35 174 -90 89 -92 128 -219 128 -413 -1 -179 -30 -288 -102 -383 -80
-105 -252 -149 -378 -96 -49 21 -112 80 -139 133 l-24 46 -1 -92 0 -93 -55 0
-55 0 0 705 0 705 55 0 55 0 2 -307z m-1584 -142 c56 -29 99 -77 124 -140 20
-53 22 -75 26 -438 l4 -383 -61 0 -61 0 0 93 -1 92 -24 -46 c-28 -53 -92 -115
-144 -136 -54 -23 -166 -21 -221 4 -159 72 -223 295 -123 430 56 76 163 109
382 120 l133 6 -4 102 c-6 124 -28 174 -93 205 -80 39 -221 21 -332 -41 -29
-16 -55 -29 -58 -29 -10 0 -46 81 -40 91 9 13 91 53 152 73 112 37 265 36 341
-3z m1003 -1 c54 -28 113 -91 143 -153 97 -201 81 -524 -34 -692 -81 -118
-258 -166 -395 -106 -46 20 -109 87 -133 140 -16 35 -17 26 -20 -236 l-2 -273
-55 0 -55 0 0 670 0 670 55 0 55 0 0 -97 0 -98 19 40 c56 125 172 183 324 163
31 -4 75 -17 98 -28z m2032 1 c29 -14 61 -40 78 -64 56 -77 59 -104 59 -519
l0 -378 -55 0 -55 0 0 318 c-1 453 -11 507 -106 553 -112 54 -269 -14 -328
-141 -20 -42 -21 -65 -24 -387 l-4 -343 -59 0 -59 0 0 490 0 490 60 0 60 0 0
-82 0 -81 29 39 c56 78 120 120 203 132 73 10 144 1 201 -27z"/>
<path d="M2984 3741 c-115 -52 -175 -217 -160 -438 16 -232 100 -344 258 -344
176 0 260 126 261 391 1 222 -52 347 -165 394 -51 22 -143 20 -194 -3z"/>
<path d="M1030 3328 c-152 -19 -204 -70 -198 -194 3 -59 8 -77 31 -107 97
-127 286 -88 367 76 24 50 32 81 37 150 l6 87 -84 -1 c-46 -1 -118 -6 -159
-11z"/>
<path d="M1970 3744 c-110 -48 -164 -174 -164 -384 0 -267 86 -401 259 -401
106 0 167 41 216 146 49 105 61 295 27 435 -25 101 -79 175 -150 204 -47 20
-142 20 -188 0z"/>
<path d="M550 1329 c-130 -11 -359 -44 -465 -67 l-80 -18 -3 -303 c-2 -285 -1
-302 15 -297 68 21 254 57 398 77 120 17 447 17 560 1 336 -49 542 -109 1060
-310 480 -186 855 -289 1191 -328 142 -17 337 -15 399 4 l30 9 -25 6 c-330 77
-463 124 -735 263 -258 132 -452 248 -750 449 -367 248 -541 341 -811 434
-224 77 -487 104 -784 80z"/>
</g>
</svg>
