<svg class="w-4 h-4" fill="currentColor" version="1.1" width="28" height="19.687" viewBox="0 0 28 19.687" ><defs id="defs200" /><title id="title192">YouTube</title><rect class="fill-[#f00]" id="rect308" width="12.247742" height="12.247742" x="7.8766294" y="3.7201293" rx="9.6023588" ry="8.2240105" /><path d="m 11.1095,13.469 7.562,-3.9059999 -7.562,-3.953 z m 2.891,-13.4689999 c 5.891,0 9.797,0.281000000000001 9.797,0.281000000000001 0.547,0.063 1.75,0.063 2.812,1.188 0,0 0.859,0.844 1.109,2.781 0.297,2.266 0.281,4.531 0.281,4.531 V 10.906 c 0,0 0.016,2.266 -0.281,4.531 -0.25,1.922 -1.109,2.781 -1.109,2.781 -1.062,1.109 -2.266,1.109 -2.812,1.172 0,0 -3.906,0.297 -9.797,0.297 v 0 c -7.281,-0.063 -9.516,-0.281 -9.516,-0.281 -0.625,-0.109 -2.031,-0.078 -3.094,-1.188 0,0 -0.859,-0.859 -1.109,-2.781 C -0.0155,13.171 5e-4,10.906 5e-4,10.906 V 8.7810001 c 0,0 -0.016,-2.266 0.281,-4.531 0.25,-1.937 1.109,-2.781 1.109,-2.781 1.062,-1.125 2.266,-1.125 2.812,-1.188 0,0 3.906,-0.281 9.797,-0.281 v 0 z" id="path194" style="fill:#ff0000" /></svg>